<?xml version="1.0" standalone="no"?>
<!DOCTYPE svg PUBLIC "-//W3C//DTD SVG 20010904//EN"
 "http://www.w3.org/TR/2001/REC-SVG-20010904/DTD/svg10.dtd">
<svg version="1.0" xmlns="http://www.w3.org/2000/svg"
 width="1232.000000pt" height="305.000000pt" viewBox="0 0 1232.000000 305.000000"
 preserveAspectRatio="xMidYMid meet">
<metadata>
Created by potrace 1.15, written by Peter Selinger 2001-2017
</metadata>
<g transform="translate(0.000000,305.000000) scale(0.100000,-0.100000)"
fill="#1d50af" stroke="none">
<path d="M345 2898 l-280 -153 288 -3 c158 -1 416 -1 575 0 l287 3 -281 153
c-155 83 -288 152 -295 152 -8 0 -140 -69 -294 -152z"/>
<path d="M2290 2930 l0 -120 65 0 65 0 0 -365 0 -365 -65 0 -65 0 0 -115 0
-115 470 0 470 0 0 210 0 210 -130 0 -130 0 0 -85 0 -85 -120 0 -120 0 0 355
0 355 65 0 65 0 0 120 0 120 -285 0 -285 0 0 -120z"/>
<path d="M3544 2568 l-160 -483 -52 -3 -52 -3 0 -115 0 -114 255 0 255 0 0
114 0 115 -48 3 -48 3 19 73 20 72 148 0 148 0 16 -57 c9 -32 18 -66 21 -75 5
-16 -2 -18 -45 -18 l-51 0 0 -115 0 -115 255 0 255 0 0 115 0 115 -49 0 -49 0
-162 485 -162 485 -176 0 -177 0 -161 -482z m382 25 c19 -68 34 -125 34 -128
0 -3 -36 -5 -81 -5 -72 0 -80 2 -75 18 11 39 64 229 72 257 7 29 8 29 12 5 2
-14 19 -80 38 -147z"/>
<path d="M4440 2845 l0 -205 130 0 130 0 0 85 0 85 65 0 65 0 0 -365 0 -365
-65 0 -65 0 0 -115 0 -115 290 0 290 0 0 115 0 115 -70 0 -70 0 0 365 0 365
65 0 65 0 0 -85 0 -85 130 0 130 0 0 205 0 205 -545 0 -545 0 0 -205z"/>
<path d="M5911 3028 c-4 -13 -77 -231 -162 -485 l-154 -463 -47 0 -48 0 0
-115 0 -115 255 0 255 0 0 115 0 115 -51 0 -51 0 8 32 c3 18 12 51 18 73 l12
40 149 0 149 0 18 -60 c25 -84 25 -85 -27 -85 l-45 0 0 -115 0 -115 250 0 250
0 0 115 0 115 -48 0 -47 0 -161 483 -161 482 -176 3 c-176 2 -177 2 -186 -20z
m252 -520 l15 -48 -83 0 -82 0 38 136 c22 75 39 146 40 158 0 12 13 -28 29
-89 16 -60 35 -131 43 -157z"/>
<path d="M6780 2941 l0 -111 70 0 70 0 0 -375 0 -375 -70 0 -70 0 0 -115 0
-115 285 0 285 0 0 115 0 115 -65 0 -65 0 0 95 0 95 53 0 c29 0 61 -6 71 -13
10 -8 60 -92 110 -187 115 -220 107 -213 304 -219 l142 -3 0 116 0 116 -43 0
c-55 0 -71 16 -132 139 -25 51 -61 106 -78 122 -17 16 -26 29 -19 29 24 0 120
100 142 148 49 104 47 249 -5 352 -31 61 -102 123 -174 152 -54 22 -69 23
-433 26 l-378 3 0 -110z m658 -155 c82 -43 82 -190 -1 -250 -21 -16 -47 -21
-122 -24 l-95 -4 0 152 0 152 93 -4 c61 -3 103 -10 125 -22z"/>
<path d="M8010 2940 l0 -110 70 0 70 0 0 -375 0 -375 -70 0 -70 0 0 -115 0
-115 295 0 295 0 0 115 0 115 -70 0 -70 0 0 214 c0 117 -2 229 -5 247 l-6 34
17 -39 c10 -22 104 -184 209 -360 l191 -321 157 -3 157 -3 0 491 0 490 65 0
65 0 0 110 0 110 -290 0 -290 0 0 -110 0 -110 70 0 70 0 0 -241 0 -241 -34 64
c-19 35 -110 191 -203 348 l-169 285 -227 3 -227 2 0 -110z"/>
<path d="M9450 2940 l0 -110 65 0 65 0 0 -375 0 -375 -65 0 -65 0 0 -115 0
-115 285 0 285 0 0 115 0 115 -65 0 -65 0 0 375 0 375 65 0 65 0 0 110 0 110
-285 0 -285 0 0 -110z"/>
<path d="M10170 2940 l0 -110 70 0 70 0 0 -375 0 -375 -70 0 -70 0 0 -115 0
-115 285 0 285 0 0 115 0 115 -60 0 -60 0 0 130 0 130 38 0 c24 0 45 -7 55
-17 8 -10 59 -106 111 -213 53 -107 106 -204 117 -216 30 -32 92 -44 228 -44
l121 0 0 115 0 115 -41 0 c-22 0 -49 5 -60 10 -11 6 -57 86 -103 178 -46 92
-98 180 -114 195 l-30 29 125 169 125 169 49 0 49 0 0 110 0 110 -250 0 -250
0 0 -110 0 -110 41 0 c22 0 39 -3 37 -8 -1 -4 -39 -60 -83 -124 l-80 -117 -42
-1 -43 0 0 125 0 125 40 0 40 0 0 110 0 110 -265 0 -265 0 0 -110z"/>
<path d="M6 2259 c-3 -17 -6 -62 -6 -100 l0 -69 70 0 c39 0 70 -2 70 -3 0 -2
-31 -469 -70 -1038 -38 -569 -70 -1035 -70 -1036 0 -2 293 -3 650 -3 576 0
650 2 650 15 0 25 -129 1934 -135 2003 l-6 62 69 0 68 0 -3 68 c-2 37 -6 82
-9 100 l-5 32 -633 0 -633 0 -7 -31z"/>
<path d="M6770 1207 c-99 -30 -171 -70 -244 -137 -126 -116 -188 -259 -189
-440 -1 -124 17 -202 70 -310 70 -142 223 -263 388 -305 78 -20 262 -20 340 0
214 54 384 223 441 435 21 80 24 244 5 320 -52 215 -227 389 -446 445 -92 23
-272 19 -365 -8z m330 -280 c115 -57 175 -165 174 -312 -1 -104 -29 -177 -95
-249 -123 -135 -305 -135 -428 0 -68 74 -94 145 -95 254 0 75 3 93 31 151 34
74 84 129 143 159 94 48 170 47 270 -3z"/>
<path d="M9360 1207 c-204 -61 -362 -223 -415 -427 -22 -83 -22 -243 0 -325
53 -200 194 -354 388 -423 58 -21 96 -26 199 -30 184 -6 330 23 432 88 76 48
86 74 86 218 l0 122 -135 0 -135 0 0 -49 c0 -87 -55 -123 -189 -123 -159 -1
-265 72 -322 221 -28 74 -31 212 -5 289 26 76 101 155 174 182 76 29 228 26
282 -6 33 -19 35 -23 38 -82 l3 -62 139 0 140 0 0 110 c0 131 -10 162 -70 213
-81 69 -231 107 -417 106 -92 0 -135 -5 -193 -22z"/>
<path d="M2280 1101 l0 -110 52 -3 51 -3 113 -465 c62 -256 116 -475 119 -487
5 -23 8 -23 173 -23 l167 0 82 333 c46 182 84 343 85 357 2 14 11 -13 21 -60
10 -47 48 -206 85 -355 l68 -270 170 -3 169 -2 43 177 c23 98 76 319 118 491
l76 312 49 0 49 0 0 110 0 110 -270 0 -270 0 0 -110 0 -110 70 0 c68 0 70 -1
65 -22 -3 -13 -28 -133 -55 -268 -59 -289 -68 -324 -69 -293 -1 13 -44 198
-97 413 l-96 390 -121 0 -122 0 -84 -343 c-47 -188 -93 -378 -102 -422 -12
-58 -17 -70 -18 -45 -1 20 -27 160 -59 313 l-59 277 69 0 68 0 0 110 0 110
-270 0 -270 0 0 -109z"/>
<path d="M4000 1100 l0 -110 50 0 49 0 146 -243 145 -242 0 -133 0 -132 -65 0
-65 0 0 -115 0 -115 285 0 285 0 0 115 0 115 -65 0 -65 0 0 131 0 131 146 244
147 244 48 0 49 0 0 110 0 110 -250 0 -250 0 0 -110 0 -110 45 0 c25 0 45 -3
45 -7 -1 -14 -140 -258 -140 -246 0 7 -29 65 -65 129 -36 64 -65 118 -65 120
0 2 20 4 45 4 l45 0 0 110 0 110 -250 0 -250 0 0 -110z"/>
<path d="M5180 1101 l0 -111 65 0 65 0 0 -375 0 -375 -65 0 -65 0 0 -115 0
-115 288 0 c368 1 472 9 549 44 71 33 136 94 171 161 37 72 43 197 12 277 -22
59 -91 133 -134 144 -20 5 -17 9 25 53 56 58 79 120 79 211 0 130 -52 215
-168 272 l-67 33 -377 3 -378 3 0 -110z m651 -160 c24 -24 29 -38 29 -76 0
-25 -5 -55 -11 -67 -17 -31 -71 -48 -154 -48 l-75 0 0 110 0 110 91 0 c87 0
92 -1 120 -29z m45 -462 c53 -54 38 -171 -27 -204 -19 -10 -60 -15 -129 -15
l-100 0 0 126 0 126 115 -4 c108 -3 116 -4 141 -29z"/>
<path d="M7730 1101 l0 -111 65 0 65 0 0 -375 0 -375 -65 0 -65 0 0 -115 0
-115 280 0 280 0 0 115 0 115 -60 0 -60 0 0 95 0 95 49 0 c32 0 56 -6 71 -18
12 -10 61 -91 108 -181 52 -98 98 -172 114 -184 33 -25 100 -35 231 -36 l97
-1 0 115 0 115 -36 0 c-19 0 -44 5 -54 10 -11 6 -45 60 -75 120 -31 60 -69
120 -84 133 l-27 23 39 24 c48 30 90 82 120 147 18 40 22 66 22 154 0 102 -1
109 -35 175 -39 75 -94 125 -177 159 -44 18 -78 20 -425 23 l-378 3 0 -110z
m633 -145 c52 -22 70 -50 75 -115 5 -70 -14 -119 -57 -144 -22 -13 -52 -17
-120 -17 l-91 0 0 145 0 145 80 0 c46 0 95 -6 113 -14z"/>
<path d="M10200 1005 l0 -205 130 0 130 0 0 84 0 85 143 3 144 3 -33 -40 c-18
-22 -141 -193 -273 -380 l-241 -340 0 -102 0 -103 475 0 475 0 0 210 0 210
-130 0 -130 0 0 -85 0 -85 -157 0 -157 0 26 28 c14 15 138 188 277 384 l251
357 0 91 0 90 -465 0 -465 0 0 -205z"/>
<path d="M11230 1101 l0 -110 52 -3 52 -3 143 -238 143 -238 0 -135 0 -134
-65 0 -65 0 0 -115 0 -115 290 0 290 0 0 115 0 115 -70 0 -70 0 0 129 0 129
147 246 148 246 47 0 48 0 0 110 0 110 -250 0 -250 0 0 -109 0 -110 48 -3 48
-3 -65 -122 c-37 -67 -68 -122 -71 -122 -3 0 -35 55 -72 122 l-67 122 45 3 44
3 0 110 0 109 -250 0 -250 0 0 -109z"/>
</g>
</svg>
